<svg width="18" height="12" viewBox="0 0 18 12" fill="none" xmlns="http://www.w3.org/2000/svg">
<path d="M15.8509 0.875H1.63976C0.735542 0.875 0 1.46385 0 2.18774V10.0641C0 10.788 0.735542 11.3769 1.63976 11.3769H15.8509C16.7551 11.3769 17.4907 10.788 17.4907 10.0641V2.18774C17.4907 1.46385 16.7551 0.875 15.8509 0.875V0.875ZM15.8509 1.75015C15.9252 1.75015 15.9958 1.76248 16.0604 1.78403L8.74534 6.85964L1.43023 1.78403C1.49482 1.76251 1.56546 1.75015 1.63973 1.75015H15.8509ZM15.8509 10.5017H1.63976C1.33819 10.5017 1.09316 10.3056 1.09316 10.0641V2.70863L8.38717 7.7694C8.4902 7.84074 8.61777 7.87623 8.74534 7.87623C8.87291 7.87623 9.00048 7.84077 9.10351 7.7694L16.3975 2.70863V10.0641C16.3975 10.3056 16.1525 10.5017 15.8509 10.5017V10.5017Z" fill="#757575"/>
</svg>
