<svg width="20" height="20" viewBox="0 0 20 20" fill="none" xmlns="http://www.w3.org/2000/svg">
<g clip-path="url(#clip0)">
<path d="M20 4.08069C19.2562 4.39211 18.4637 4.59853 17.6375 4.69876C18.4875 4.21433 19.1363 3.45308 19.4413 2.53552C18.6488 2.98654 17.7737 3.30512 16.8412 3.48291C16.0887 2.71808 15.0162 2.24438 13.8462 2.24438C11.5762 2.24438 9.74875 4.00313 9.74875 6.15921C9.74875 6.46944 9.77625 6.76774 9.84375 7.05171C6.435 6.89302 3.41875 5.33353 1.3925 2.95791C1.03875 3.54376 0.83125 4.21433 0.83125 4.9362C0.83125 6.29166 1.5625 7.49319 2.6525 8.18882C1.99375 8.17688 1.3475 7.99433 0.8 7.70677C0.8 7.7187 0.8 7.73421 0.8 7.74973C0.8 9.65166 2.22125 11.2314 4.085 11.5954C3.75125 11.6825 3.3875 11.7242 3.01 11.7242C2.7475 11.7242 2.4825 11.7099 2.23375 11.6574C2.765 13.2073 4.2725 14.3468 6.065 14.3838C4.67 15.4255 2.89875 16.0531 0.98125 16.0531C0.645 16.0531 0.3225 16.0388 0 15.9994C1.81625 17.1174 3.96875 17.7557 6.29 17.7557C13.835 17.7557 17.96 11.7898 17.96 6.61859C17.96 6.44558 17.9537 6.27853 17.945 6.11268C18.7587 5.56143 19.4425 4.87296 20 4.08069Z" fill="white"/>
</g>
<defs>
<clipPath id="clip0">
<rect y="0.45459" width="20" height="19.0909" fill="white"/>
</clipPath>
</defs>
</svg>
